RBDS021runT45_grf
version=1
nRows=15
nColumns=19
inDegrees=no
endheader
time	ground_force_r_vx	ground_force_r_vy	ground_force_r_vz	ground_force_r_px	ground_force_r_py	ground_force_r_pz	ground_force_r_mx	ground_force_r_my	ground_force_r_mz	ground_force_l_vx	ground_force_l_vy	ground_force_l_vz	ground_force_l_px	ground_force_l_py	ground_force_l_pz	ground_force_l_mx	ground_force_l_my	ground_force_l_mz
      0.00000000	     30.39189332	   1825.78676587	    -34.04540288	      1.97178228	      0.00000000	      1.05050107	      0.00000000	     -1.35819448	     -0.00000000	      0.00000000	      0.00000000	      0.00000000	      0.00000000	      0.00000000	      0.00000000	      0.00000000	      0.00000000	      0.00000000
      0.00100000	     39.54058081	   1811.38087460	    -32.71670481	      1.96906026	      0.00000000	      1.05046864	     -0.00000000	     -1.15002515	      0.00000000	      0.00000000	      0.00000000	      0.00000000	      0.00000000	      0.00000000	      0.00000000	      0.00000000	      0.00000000	      0.00000000
      0.00200000	     48.68926829	   1796.97498333	    -31.38800674	      1.96633824	      0.00000000	      1.05043621	     -0.00000000	     -0.94185582	      0.00000000	      0.00000000	      0.00000000	      0.00000000	      0.00000000	      0.00000000	      0.00000000	      0.00000000	      0.00000000	      0.00000000
      0.00300000	     57.83795578	   1782.56909207	    -30.05930867	      1.96361623	      0.00000000	      1.05040378	     -0.00000000	     -0.73368650	      0.00000000	      0.00000000	      0.00000000	      0.00000000	      0.00000000	      0.00000000	      0.00000000	      0.00000000	      0.00000000	      0.00000000
      0.00400000	     66.87185486	   1767.91054640	    -28.75739566	      1.96086786	      0.00000000	      1.05037349	     -0.00000000	     -0.53275831	      0.00000000	      0.00000000	      0.00000000	      0.00000000	      0.00000000	      0.00000000	      0.00000000	      0.00000000	      0.00000000	      0.00000000
      0.00500000	     75.84835975	   1753.12567353	    -27.46887518	      1.95810633	      0.00000000	      1.05034428	     -0.00000000	     -0.33545070	      0.00000000	      0.00000000	      0.00000000	      0.00000000	      0.00000000	      0.00000000	      0.00000000	      0.00000000	      0.00000000	      0.00000000
      0.00600000	     84.82486463	   1738.34080066	    -26.18035470	      1.95534480	      0.00000000	      1.05031506	     -0.00000000	     -0.13814309	      0.00000000	      0.00000000	      0.00000000	      0.00000000	      0.00000000	      0.00000000	      0.00000000	      0.00000000	      0.00000000	      0.00000000
      0.00700000	     93.68983550	   1723.36590810	    -24.91138248	      1.95256502	      0.00000000	      1.05028906	     -0.00000000	      0.05337214	      0.00000000	      0.00000000	      0.00000000	      0.00000000	      0.00000000	      0.00000000	      0.00000000	      0.00000000	      0.00000000	      0.00000000
      0.00800000	    102.33173833	   1708.01097616	    -23.68150676	      1.94974874	      0.00000000	      1.05026950	     -0.00000000	      0.23330262	      0.00000000	      0.00000000	      0.00000000	      0.00000000	      0.00000000	      0.00000000	      0.00000000	      0.00000000	      0.00000000	      0.00000000
      0.00900000	    110.97364117	   1692.65604421	    -22.45163103	      1.94693245	      0.00000000	      1.05024994	     -0.00000000	      0.41323311	      0.00000000	      0.00000000	      0.00000000	      0.00000000	      0.00000000	      0.00000000	      0.00000000	      0.00000000	      0.00000000	      0.00000000
      0.01000000	    119.61554401	   1677.30111226	    -21.22175531	      1.94411617	      0.00000000	      1.05023038	     -0.00000000	      0.59316359	      0.00000000	      0.00000000	      0.00000000	      0.00000000	      0.00000000	      0.00000000	      0.00000000	      0.00000000	      0.00000000	      0.00000000
      0.01100000	    127.76428803	   1661.19410661	    -20.06728000	      1.94123138	      0.00000000	      1.05022750	     -0.00000000	      0.74988376	      0.00000000	      0.00000000	      0.00000000	      0.00000000	      0.00000000	      0.00000000	      0.00000000	      0.00000000	      0.00000000	      0.00000000
      0.01200000	    135.91303206	   1645.08710095	    -18.91280469	      1.93834660	      0.00000000	      1.05022462	     -0.00000000	      0.90660393	      0.00000000	      0.00000000	      0.00000000	      0.00000000	      0.00000000	      0.00000000	      0.00000000	      0.00000000	      0.00000000	      0.00000000
      0.01300000	    144.06177608	   1628.98009530	    -17.75832938	      1.93546181	      0.00000000	      1.05022173	     -0.00000000	      1.06332410	      0.00000000	      0.00000000	      0.00000000	      0.00000000	      0.00000000	      0.00000000	      0.00000000	      0.00000000	      0.00000000	      0.00000000
      0.01400000	    151.78170307	   1612.26353020	    -16.66375676	      1.93252402	      0.00000000	      1.05023490	     -0.00000000	      1.20132333	      0.00000000	      0.00000000	      0.00000000	      0.00000000	      0.00000000	      0.00000000	      0.00000000	      0.00000000	      0.00000000	      0.00000000
